<svg xmlns="http://www.w3.org/2000/svg" width="500" height="48" fill="none"><path fill="#172E23" d="M32.958 9.152v37.885h-14.69V9.152H0V.064h51.225v9.088zm97.722 37.883h-14.69V.072h31.99c3.094 0 5.895.355 8.413 1.076 2.509.721 4.654 1.743 6.424 3.066q2.655 1.983 4.106 4.745c.967 1.843 1.451 3.878 1.451 6.122v.064c-.01 3.157-1.032 8.212-3.048 10.566-2.026 2.382-5.11 4.106-9.234 5.183l12.272 16.15h-16.332L141.201 32.92h-10.539v14.124zm15.466-23.55q3.285 0 5.174-1.177c1.259-.785 1.889-1.944 1.889-3.468v-4.717c0-1.524-.63-3.22-1.889-4.005s-2.984-.64-5.174-.64H130.68v13.998h15.466zm46.342 23.55h-14.691V.072h31.991c3.093 0 5.894.355 8.412 1.076q3.767 1.082 6.424 3.066 2.655 1.983 4.106 4.745c.967 1.843 1.451 3.878 1.451 6.122v.064c-.009 3.157-1.031 8.212-3.048 10.566-2.025 2.382-5.109 4.106-9.234 5.183l12.273 16.15h-16.333L203.008 32.92H192.47v14.124zm15.466-23.55q3.285 0 5.173-1.177c1.259-.785 1.889-1.944 1.889-3.468v-4.717c0-1.524-.63-3.22-1.889-4.005s-2.983-.64-5.173-.64h-15.466v13.998h15.466zm78.727 23.49-4.928-9.426h-22.519l-4.735 9.426h-14.882L261.844.01h18.176l21.944 46.964h-15.283M270.731 9.29h-.484l-7.491 18.906h15.466zm79.738 37.683c-4.444 0-8.504-.502-12.181-1.497-3.677-.994-6.798-2.481-9.38-4.452s-4.571-4.426-5.995-7.355c-1.414-2.929-2.126-6.323-2.126-10.182s.712-7.254 2.126-10.183a20.2 20.2 0 0 1 5.995-7.355c2.573-1.97 5.703-3.458 9.38-4.452C341.965.502 346.016 0 350.469 0s8.504.502 12.181 1.497c3.677.994 6.798 2.481 9.38 4.452a20.34 20.34 0 0 1 5.995 7.355c1.414 2.929 2.126 6.323 2.126 10.183s-.712 7.253-2.126 10.182a20.2 20.2 0 0 1-5.995 7.355c-2.582 1.97-5.703 3.458-9.38 4.452-3.677.995-7.728 1.497-12.181 1.497m0-9.353q6.668 0 10.393-2.929c2.482-1.952 3.722-4.744 3.722-8.394v-5.685c0-3.64-1.24-6.442-3.722-8.394-2.482-1.953-5.94-2.93-10.393-2.93s-7.911.977-10.393 2.93c-2.482 1.952-3.723 4.744-3.723 8.394v5.685c0 3.64 1.241 6.442 3.723 8.394 2.482 1.953 5.94 2.93 10.393 2.93m59.682-12.793-6.478-9.416h-.292v31.625h-13.824V.073h16.041l18.459 22.2 6.478 9.417h.292V.063h13.824v46.964H428.61zM106.564 37.61H60.65v9.425h45.914zm0-37.546H60.65v9.425h45.914zm0 18.776H60.65v9.417h45.914zM500 37.61h-45.914v9.425H500zm0-37.546h-45.914v9.425H500zm0 18.776h-45.914v9.417H500z"/></svg>